<svg xmlns="http://www.w3.org/2000/svg" viewBox="0 0 256 256" role="img" aria-label="StampaMurale">
  <defs>
    <linearGradient id="ribbon" x1="34" y1="55" x2="222" y2="201" gradientUnits="userSpaceOnUse">
      <stop offset="0" stop-color="#ffb45f"/>
      <stop offset="0.20" stop-color="#ff684f"/>
      <stop offset="0.40" stop-color="#ef3b91"/>
      <stop offset="0.58" stop-color="#a13bdd"/>
      <stop offset="0.76" stop-color="#4b55ee"/>
      <stop offset="1" stop-color="#2abcf2"/>
    </linearGradient>
    <linearGradient id="warm" x1="40" y1="130" x2="118" y2="188" gradientUnits="userSpaceOnUse">
      <stop offset="0" stop-color="#ff7a42"/>
      <stop offset="1" stop-color="#b41b83"/>
    </linearGradient>
    <linearGradient id="cool" x1="132" y1="86" x2="216" y2="178" gradientUnits="userSpaceOnUse">
      <stop offset="0" stop-color="#3c2fbd"/>
      <stop offset="1" stop-color="#167fe6"/>
    </linearGradient>
  </defs>
  <path d="M34 128c0-42 41-67 77-39l28 23c18 15 35 31 54 31 18 0 30-11 30-27 0-18-15-31-32-31-15 0-27 8-40 21l-53 54c-31 31-64 28-64-32z" fill="none" stroke="url(#ribbon)" stroke-width="34" stroke-linecap="round" stroke-linejoin="round"/>
  <path d="M52 158c18 20 39 17 57 0l23-23" fill="none" stroke="url(#warm)" stroke-width="24" stroke-linecap="round" opacity=".78"/>
  <path d="M139 116c19 18 38 30 57 27" fill="none" stroke="url(#cool)" stroke-width="21" stroke-linecap="round" opacity=".52"/>
</svg>
